# xmcd
#
# Track frame offsets:
#	182
#	19535
#	33202
#	49097
#	62072
#	77967
#	93250
#	115295
#	131847
#	143915
#
# Disc length: 2124 seconds
#
# Revision: 3
# Processed by: cddbd v1.5.1PL2 Copyright (c) Steve Scherf et al.
# Submitted via: dBpowerAMP V4.0
#
DISCID=82084a0a
DTITLE=Various Artist - Floor Fillin, Two Steppin', Honky Tonk Hits Vol. 3
DYEAR=1900
DGENRE=country
TTITLE0=Pirates Of The Mississippi - Dream You
TTITLE1=Tanya Tucker - Tail Of Tears
TTITLE2=Ricky Lynn Gregg - Three Nickels And A Dime
TTITLE3=Chris LeDoux - Cowboy's Like A Little Rock And Roll
TTITLE4=Charlie Floyd - Mama Raised Me Righ
TTITLE5=John Anderson - Who's Lovin' My Baby Tonight
TTITLE6=Ronnie Milsap - True Believer
TTITLE7=Dan Seals - Bop
TTITLE8=Highway 101 - Fastest Healin' Broken Heart
TTITLE9=Suzy Bogguss - Other Side Of The Hill
EXTD=
EXTT0=
EXTT1=
EXTT2=
EXTT3=
EXTT4=
EXTT5=
EXTT6=
EXTT7=
EXTT8=
EXTT9=
PLAYORDER=
